<svg width="1512" height="961" viewBox="0 0 1512 961" fill="none" xmlns="http://www.w3.org/2000/svg">
<rect width="1512" height="961" rx="20" fill="#212121"/>
<rect x="40" y="207" width="987" height="641" rx="15" fill="#313131"/>
<rect x="38.5" y="101.5" width="990" height="79" rx="16.5" fill="#313131" stroke="#6CC274" stroke-width="3"/>
<path d="M68.7633 252.024L70.8393 251.508V258H72.7953V249.444L68.7633 250.26V252.024Z" fill="#7DDD87"/>
<path d="M67.3025 287H74.4185V285.14H71.0585L73.0145 283.388C73.3745 283.076 73.6665 282.732 73.8905 282.356C74.1145 281.972 74.2265 281.552 74.2265 281.096C74.2265 280.776 74.1585 280.46 74.0225 280.148C73.8865 279.836 73.6825 279.552 73.4105 279.296C73.1465 279.032 72.8145 278.824 72.4145 278.672C72.0145 278.512 71.5545 278.432 71.0345 278.432C70.3145 278.432 69.7025 278.58 69.1985 278.876C68.7025 279.172 68.3305 279.568 68.0825 280.064C67.8345 280.56 67.7105 281.108 67.7105 281.708H69.7025C69.7025 281.404 69.7505 281.136 69.8465 280.904C69.9505 280.672 70.0985 280.492 70.2905 280.364C70.4905 280.236 70.7185 280.172 70.9745 280.172C71.1665 280.172 71.3345 280.204 71.4785 280.268C71.6225 280.324 71.7425 280.404 71.8385 280.508C71.9345 280.604 72.0065 280.716 72.0545 280.844C72.1025 280.972 72.1265 281.1 72.1265 281.228C72.1265 281.452 72.0825 281.664 71.9945 281.864C71.9145 282.056 71.7905 282.252 71.6225 282.452C71.4625 282.652 71.2705 282.876 71.0465 283.124L67.3025 287ZM70.5734 311.932C71.2374 311.932 71.8374 311.852 72.3734 311.692C72.9094 311.532 73.3334 311.292 73.6454 310.972C73.9654 310.652 74.1254 310.252 74.1254 309.772C74.1254 309.34 74.0094 308.948 73.7774 308.596C73.5534 308.244 73.2214 307.964 72.7814 307.756C72.3414 307.548 71.8054 307.444 71.1734 307.444C70.5814 307.444 70.0614 307.56 69.6134 307.792C69.1654 308.016 68.8174 308.328 68.5694 308.728C68.3294 309.12 68.2094 309.564 68.2094 310.06H70.0694C70.0694 309.764 70.1734 309.524 70.3814 309.34C70.5894 309.156 70.8534 309.064 71.1734 309.064C71.3894 309.064 71.5654 309.1 71.7014 309.172C71.8374 309.236 71.9414 309.332 72.0134 309.46C72.0854 309.588 72.1214 309.732 72.1214 309.892C72.1214 310.044 72.0854 310.188 72.0134 310.324C71.9414 310.46 71.8334 310.58 71.6894 310.684C71.5534 310.788 71.3894 310.872 71.1974 310.936C71.0134 310.992 70.8054 311.02 70.5734 311.02V311.932ZM71.0774 316.192C71.7654 316.192 72.3534 316.088 72.8414 315.88C73.3294 315.664 73.7054 315.372 73.9694 315.004C74.2334 314.628 74.3654 314.196 74.3654 313.708C74.3654 313.284 74.2734 312.92 74.0894 312.616C73.9054 312.312 73.6414 312.064 73.2974 311.872C72.9534 311.672 72.5494 311.528 72.0854 311.44C71.6294 311.344 71.1254 311.296 70.5734 311.296V312.328C70.8774 312.328 71.1414 312.356 71.3654 312.412C71.5894 312.468 71.7734 312.552 71.9174 312.664C72.0694 312.768 72.1814 312.892 72.2534 313.036C72.3254 313.18 72.3614 313.34 72.3614 313.516C72.3614 313.748 72.3094 313.944 72.2054 314.104C72.1014 314.264 71.9574 314.38 71.7734 314.452C71.5974 314.524 71.3894 314.56 71.1494 314.56C70.9254 314.56 70.7094 314.516 70.5014 314.428C70.3014 314.34 70.1414 314.204 70.0214 314.02C69.9014 313.836 69.8414 313.608 69.8414 313.336H67.8494C67.8494 313.704 67.9214 314.06 68.0654 314.404C68.2174 314.748 68.4294 315.056 68.7014 315.328C68.9814 315.6 69.3214 315.812 69.7214 315.964C70.1214 316.116 70.5734 316.192 71.0774 316.192ZM66.9785 343.512H74.6825V341.784H72.9665L72.7625 342.048H69.6665L71.4785 339.54V342.756L71.2505 342.888V345H73.3625V336.6H71.8505L66.9785 343.512ZM74.3928 371.312C74.3928 370.728 74.2728 370.232 74.0328 369.824C73.7928 369.416 73.4768 369.104 73.0848 368.888C72.7008 368.672 72.2848 368.564 71.8368 368.564C71.5728 368.564 71.3168 368.588 71.0688 368.636C70.8288 368.676 70.5968 368.748 70.3728 368.852L70.8528 367.352H74.2128V365.6H69.3648L68.1888 370.448C68.4768 370.304 68.7568 370.196 69.0288 370.124C69.3088 370.044 69.5768 369.992 69.8328 369.968C70.0968 369.936 70.3368 369.92 70.5528 369.92C70.8328 369.92 71.0928 369.96 71.3328 370.04C71.5808 370.12 71.7808 370.248 71.9328 370.424C72.0928 370.592 72.1728 370.816 72.1728 371.096C72.1728 371.36 72.1088 371.584 71.9808 371.768C71.8528 371.952 71.6688 372.088 71.4288 372.176C71.1888 372.264 70.8968 372.308 70.5528 372.308C70.3528 372.308 70.1288 372.272 69.8808 372.2C69.6328 372.12 69.3848 372.016 69.1368 371.888C68.8968 371.752 68.6608 371.588 68.4288 371.396L67.6368 373.064C67.9008 373.264 68.1928 373.448 68.5128 373.616C68.8328 373.776 69.2008 373.904 69.6168 374C70.0328 374.104 70.4968 374.156 71.0088 374.156C71.4168 374.156 71.8168 374.104 72.2088 374C72.6088 373.888 72.9728 373.716 73.3008 373.484C73.6368 373.252 73.9008 372.956 74.0928 372.596C74.2928 372.236 74.3928 371.808 74.3928 371.312ZM69.5903 400.048C69.5903 399.768 69.6503 399.52 69.7703 399.304C69.8983 399.088 70.0663 398.92 70.2743 398.8C70.4903 398.68 70.7343 398.62 71.0063 398.62C71.2703 398.62 71.5063 398.68 71.7143 398.8C71.9303 398.92 72.0983 399.088 72.2183 399.304C72.3463 399.52 72.4103 399.768 72.4103 400.048C72.4103 400.336 72.3463 400.588 72.2183 400.804C72.0983 401.012 71.9303 401.176 71.7143 401.296C71.5063 401.408 71.2703 401.464 71.0063 401.464C70.7343 401.464 70.4903 401.408 70.2743 401.296C70.0663 401.176 69.8983 401.012 69.7703 400.804C69.6503 400.588 69.5903 400.336 69.5903 400.048ZM70.9823 394.636L68.5583 397.72C68.2863 398.056 68.0543 398.416 67.8623 398.8C67.6783 399.184 67.5863 399.6 67.5863 400.048C67.5863 400.736 67.7383 401.316 68.0423 401.788C68.3543 402.252 68.7663 402.604 69.2783 402.844C69.7983 403.076 70.3743 403.192 71.0063 403.192C71.6303 403.192 72.1983 403.076 72.7103 402.844C73.2303 402.604 73.6423 402.252 73.9463 401.788C74.2583 401.316 74.4143 400.736 74.4143 400.048C74.4143 399.624 74.3383 399.244 74.1863 398.908C74.0423 398.572 73.8423 398.288 73.5863 398.056C73.3383 397.816 73.0583 397.636 72.7463 397.516C72.4423 397.388 72.1343 397.324 71.8223 397.324C71.5183 397.324 71.2623 397.356 71.0543 397.42C70.8543 397.484 70.6423 397.628 70.4183 397.852L70.8383 397.672L73.5503 394.636H70.9823ZM67.7448 425.496H71.6208L68.3448 432H70.5408L74.5968 423.6H67.7448V425.496ZM68.1623 454.628C68.1623 455.012 68.2423 455.348 68.4023 455.636C68.5703 455.916 68.7903 456.152 69.0623 456.344C69.3343 456.528 69.6383 456.664 69.9743 456.752C70.3103 456.84 70.6503 456.884 70.9943 456.884C71.3383 456.884 71.6783 456.84 72.0143 456.752C72.3503 456.664 72.6543 456.528 72.9263 456.344C73.2063 456.152 73.4263 455.916 73.5863 455.636C73.7543 455.348 73.8383 455.012 73.8383 454.628C73.8383 454.156 73.7063 453.756 73.4423 453.428C73.1863 453.092 72.8423 452.84 72.4103 452.672C71.9863 452.496 71.5143 452.408 70.9943 452.408C70.4823 452.408 70.0103 452.496 69.5783 452.672C69.1543 452.84 68.8103 453.092 68.5463 453.428C68.2903 453.756 68.1623 454.156 68.1623 454.628ZM70.0703 454.82C70.0703 454.636 70.1063 454.472 70.1783 454.328C70.2583 454.176 70.3703 454.06 70.5143 453.98C70.6583 453.9 70.8183 453.86 70.9943 453.86C71.1863 453.86 71.3503 453.9 71.4863 453.98C71.6303 454.06 71.7383 454.176 71.8103 454.328C71.8903 454.472 71.9303 454.636 71.9303 454.82C71.9303 455.012 71.8903 455.18 71.8103 455.324C71.7303 455.468 71.6183 455.58 71.4743 455.66C71.3383 455.74 71.1783 455.78 70.9943 455.78C70.8183 455.78 70.6583 455.74 70.5143 455.66C70.3783 455.58 70.2703 455.468 70.1903 455.324C70.1103 455.18 70.0703 455.012 70.0703 454.82ZM67.8623 458.72C67.8623 459.104 67.9463 459.448 68.1143 459.752C68.2823 460.056 68.5143 460.316 68.8103 460.532C69.1063 460.748 69.4423 460.912 69.8183 461.024C70.1943 461.136 70.5863 461.192 70.9943 461.192C71.4103 461.192 71.8063 461.136 72.1823 461.024C72.5583 460.912 72.8943 460.748 73.1903 460.532C73.4863 460.316 73.7183 460.056 73.8863 459.752C74.0543 459.448 74.1383 459.104 74.1383 458.72C74.1383 458.28 74.0423 457.904 73.8503 457.592C73.6583 457.272 73.4023 457.016 73.0823 456.824C72.7703 456.624 72.4303 456.48 72.0623 456.392C71.6943 456.296 71.3383 456.248 70.9943 456.248C70.6503 456.248 70.2943 456.296 69.9263 456.392C69.5583 456.48 69.2183 456.624 68.9063 456.824C68.5943 457.016 68.3423 457.272 68.1503 457.592C67.9583 457.904 67.8623 458.28 67.8623 458.72ZM69.8783 458.408C69.8783 458.208 69.9263 458.024 70.0223 457.856C70.1263 457.688 70.2623 457.556 70.4303 457.46C70.6063 457.364 70.7943 457.316 70.9943 457.316C71.2023 457.316 71.3903 457.364 71.5583 457.46C71.7343 457.556 71.8703 457.688 71.9663 457.856C72.0703 458.024 72.1223 458.208 72.1223 458.408C72.1223 458.656 72.0703 458.864 71.9663 459.032C71.8703 459.2 71.7343 459.328 71.5583 459.416C71.3903 459.504 71.2023 459.548 70.9943 459.548C70.7943 459.548 70.6063 459.504 70.4303 459.416C70.2623 459.328 70.1263 459.2 70.0223 459.032C69.9263 458.864 69.8783 458.656 69.8783 458.408ZM72.4103 484.552C72.4103 484.832 72.3463 485.08 72.2183 485.296C72.0983 485.512 71.9303 485.68 71.7143 485.8C71.5063 485.92 71.2703 485.98 71.0063 485.98C70.7343 485.98 70.4903 485.92 70.2743 485.8C70.0663 485.68 69.8983 485.512 69.7703 485.296C69.6503 485.08 69.5903 484.832 69.5903 484.552C69.5903 484.264 69.6503 484.016 69.7703 483.808C69.8983 483.592 70.0663 483.428 70.2743 483.316C70.4903 483.196 70.7343 483.136 71.0063 483.136C71.2703 483.136 71.5063 483.196 71.7143 483.316C71.9303 483.428 72.0983 483.592 72.2183 483.808C72.3463 484.016 72.4103 484.264 72.4103 484.552ZM71.0183 489.964L73.4423 486.88C73.7143 486.544 73.9423 486.184 74.1263 485.8C74.3183 485.416 74.4143 485 74.4143 484.552C74.4143 483.856 74.2583 483.276 73.9463 482.812C73.6423 482.348 73.2303 482 72.7103 481.768C72.1983 481.528 71.6303 481.408 71.0063 481.408C70.3743 481.408 69.7983 481.528 69.2783 481.768C68.7663 482 68.3543 482.348 68.0423 482.812C67.7383 483.276 67.5863 483.856 67.5863 484.552C67.5863 484.976 67.6623 485.356 67.8143 485.692C67.9663 486.028 68.1663 486.316 68.4143 486.556C68.6623 486.788 68.9383 486.968 69.2423 487.096C69.5543 487.216 69.8663 487.276 70.1783 487.276C70.4823 487.276 70.7343 487.244 70.9343 487.18C71.1423 487.108 71.3583 486.964 71.5823 486.748L71.1743 486.928L68.4503 489.964H71.0183ZM64.7906 513.024L66.8666 512.508V519H68.8226V510.444L64.7906 511.26V513.024ZM72.5161 514.8C72.5161 514.408 72.5521 514.052 72.6241 513.732C72.6961 513.404 72.8001 513.128 72.9361 512.904C73.0721 512.672 73.2321 512.496 73.4161 512.376C73.6081 512.248 73.8201 512.184 74.0521 512.184C74.2841 512.184 74.4921 512.248 74.6761 512.376C74.8681 512.496 75.0321 512.672 75.1681 512.904C75.3041 513.128 75.4081 513.404 75.4801 513.732C75.5521 514.052 75.5881 514.408 75.5881 514.8C75.5881 515.192 75.5521 515.552 75.4801 515.88C75.4081 516.2 75.3041 516.476 75.1681 516.708C75.0321 516.932 74.8681 517.108 74.6761 517.236C74.4921 517.356 74.2841 517.416 74.0521 517.416C73.8201 517.416 73.6081 517.356 73.4161 517.236C73.2321 517.108 73.0721 516.932 72.9361 516.708C72.8001 516.476 72.6961 516.2 72.6241 515.88C72.5521 515.552 72.5161 515.192 72.5161 514.8ZM70.5601 514.8C70.5601 515.712 70.7041 516.492 70.9921 517.14C71.2881 517.788 71.7001 518.288 72.2281 518.64C72.7561 518.984 73.3641 519.156 74.0521 519.156C74.7721 519.156 75.3921 518.984 75.9121 518.64C76.4321 518.288 76.8321 517.788 77.1121 517.14C77.4001 516.492 77.5441 515.712 77.5441 514.8C77.5441 513.888 77.4001 513.108 77.1121 512.46C76.8321 511.812 76.4321 511.316 75.9121 510.972C75.3921 510.62 74.7721 510.444 74.0521 510.444C73.3641 510.444 72.7561 510.62 72.2281 510.972C71.7001 511.316 71.2881 511.812 70.9921 512.46C70.7041 513.108 70.5601 513.888 70.5601 514.8ZM65.7105 542.024L67.7865 541.508V548H69.7425V539.444L65.7105 540.26V542.024ZM71.816 542.024L73.892 541.508V548H75.848V539.444L71.816 540.26V542.024ZM64.8258 571.024L66.9018 570.508V577H68.8578V568.444L64.8258 569.26V571.024ZM70.3552 577H77.4712V575.14H74.1112L76.0672 573.388C76.4272 573.076 76.7192 572.732 76.9432 572.356C77.1672 571.972 77.2792 571.552 77.2792 571.096C77.2792 570.776 77.2112 570.46 77.0752 570.148C76.9392 569.836 76.7352 569.552 76.4632 569.296C76.1992 569.032 75.8672 568.824 75.4672 568.672C75.0672 568.512 74.6072 568.432 74.0872 568.432C73.3672 568.432 72.7552 568.58 72.2512 568.876C71.7552 569.172 71.3832 569.568 71.1352 570.064C70.8872 570.56 70.7632 571.108 70.7632 571.708H72.7552C72.7552 571.404 72.8032 571.136 72.8992 570.904C73.0032 570.672 73.1512 570.492 73.3432 570.364C73.5432 570.236 73.7712 570.172 74.0272 570.172C74.2192 570.172 74.3872 570.204 74.5312 570.268C74.6752 570.324 74.7952 570.404 74.8912 570.508C74.9872 570.604 75.0592 570.716 75.1072 570.844C75.1552 570.972 75.1792 571.1 75.1792 571.228C75.1792 571.452 75.1352 571.664 75.0472 571.864C74.9672 572.056 74.8432 572.252 74.6752 572.452C74.5152 572.652 74.3232 572.876 74.0992 573.124L70.3552 577ZM65.0367 600.024L67.1127 599.508V606H69.0687V597.444L65.0367 598.26V600.024ZM73.6262 601.932C74.2902 601.932 74.8902 601.852 75.4262 601.692C75.9622 601.532 76.3862 601.292 76.6982 600.972C77.0182 600.652 77.1782 600.252 77.1782 599.772C77.1782 599.34 77.0622 598.948 76.8302 598.596C76.6062 598.244 76.2742 597.964 75.8342 597.756C75.3942 597.548 74.8582 597.444 74.2262 597.444C73.6342 597.444 73.1142 597.56 72.6662 597.792C72.2182 598.016 71.8702 598.328 71.6222 598.728C71.3822 599.12 71.2622 599.564 71.2622 600.06H73.1222C73.1222 599.764 73.2262 599.524 73.4342 599.34C73.6422 599.156 73.9062 599.064 74.2262 599.064C74.4422 599.064 74.6182 599.1 74.7542 599.172C74.8902 599.236 74.9942 599.332 75.0662 599.46C75.1382 599.588 75.1742 599.732 75.1742 599.892C75.1742 600.044 75.1382 600.188 75.0662 600.324C74.9942 600.46 74.8862 600.58 74.7422 600.684C74.6062 600.788 74.4422 600.872 74.2502 600.936C74.0662 600.992 73.8582 601.02 73.6262 601.02V601.932ZM74.1302 606.192C74.8182 606.192 75.4062 606.088 75.8942 605.88C76.3822 605.664 76.7582 605.372 77.0222 605.004C77.2862 604.628 77.4182 604.196 77.4182 603.708C77.4182 603.284 77.3262 602.92 77.1422 602.616C76.9582 602.312 76.6942 602.064 76.3502 601.872C76.0062 601.672 75.6022 601.528 75.1382 601.44C74.6822 601.344 74.1782 601.296 73.6262 601.296V602.328C73.9302 602.328 74.1942 602.356 74.4182 602.412C74.6422 602.468 74.8262 602.552 74.9702 602.664C75.1222 602.768 75.2342 602.892 75.3062 603.036C75.3782 603.18 75.4142 603.34 75.4142 603.516C75.4142 603.748 75.3622 603.944 75.2582 604.104C75.1542 604.264 75.0102 604.38 74.8262 604.452C74.6502 604.524 74.4422 604.56 74.2022 604.56C73.9782 604.56 73.7622 604.516 73.5542 604.428C73.3542 604.34 73.1942 604.204 73.0742 604.02C72.9542 603.836 72.8942 603.608 72.8942 603.336H70.9022C70.9022 603.704 70.9742 604.06 71.1182 604.404C71.2702 604.748 71.4822 605.056 71.7542 605.328C72.0342 605.6 72.3742 605.812 72.7742 605.964C73.1742 606.116 73.6262 606.192 74.1302 606.192ZM64.5738 629.024L66.6498 628.508V635H68.6058V626.444L64.5738 627.26V629.024ZM70.0313 633.512H77.7353V631.784H76.0193L75.8153 632.048H72.7193L74.5313 629.54V632.756L74.3033 632.888V635H76.4153V626.6H74.9033L70.0313 633.512ZM64.8961 658.024L66.9721 657.508V664H68.9281V655.444L64.8961 656.26V658.024ZM77.4455 661.312C77.4455 660.728 77.3255 660.232 77.0855 659.824C76.8455 659.416 76.5295 659.104 76.1375 658.888C75.7535 658.672 75.3375 658.564 74.8895 658.564C74.6255 658.564 74.3695 658.588 74.1215 658.636C73.8815 658.676 73.6495 658.748 73.4255 658.852L73.9055 657.352H77.2655V655.6H72.4175L71.2415 660.448C71.5295 660.304 71.8095 660.196 72.0815 660.124C72.3615 660.044 72.6295 659.992 72.8855 659.968C73.1495 659.936 73.3895 659.92 73.6055 659.92C73.8855 659.92 74.1455 659.96 74.3855 660.04C74.6335 660.12 74.8335 660.248 74.9855 660.424C75.1455 660.592 75.2255 660.816 75.2255 661.096C75.2255 661.36 75.1615 661.584 75.0335 661.768C74.9055 661.952 74.7215 662.088 74.4815 662.176C74.2415 662.264 73.9495 662.308 73.6055 662.308C73.4055 662.308 73.1815 662.272 72.9335 662.2C72.6855 662.12 72.4375 662.016 72.1895 661.888C71.9495 661.752 71.7135 661.588 71.4815 661.396L70.6895 663.064C70.9535 663.264 71.2455 663.448 71.5655 663.616C71.8855 663.776 72.2535 663.904 72.6695 664C73.0855 664.104 73.5495 664.156 74.0615 664.156C74.4695 664.156 74.8695 664.104 75.2615 664C75.6615 663.888 76.0255 663.716 76.3535 663.484C76.6895 663.252 76.9535 662.956 77.1455 662.596C77.3455 662.236 77.4455 661.808 77.4455 661.312ZM64.7496 687.024L66.8256 686.508V693H68.7816V684.444L64.7496 685.26V687.024ZM72.6431 690.048C72.6431 689.768 72.7031 689.52 72.8231 689.304C72.9511 689.088 73.1191 688.92 73.3271 688.8C73.5431 688.68 73.7871 688.62 74.0591 688.62C74.3231 688.62 74.5591 688.68 74.7671 688.8C74.9831 688.92 75.1511 689.088 75.2711 689.304C75.3991 689.52 75.4631 689.768 75.4631 690.048C75.4631 690.336 75.3991 690.588 75.2711 690.804C75.1511 691.012 74.9831 691.176 74.7671 691.296C74.5591 691.408 74.3231 691.464 74.0591 691.464C73.7871 691.464 73.5431 691.408 73.3271 691.296C73.1191 691.176 72.9511 691.012 72.8231 690.804C72.7031 690.588 72.6431 690.336 72.6431 690.048ZM74.0351 684.636L71.6111 687.72C71.3391 688.056 71.1071 688.416 70.9151 688.8C70.7311 689.184 70.6391 689.6 70.6391 690.048C70.6391 690.736 70.7911 691.316 71.0951 691.788C71.4071 692.252 71.8191 692.604 72.3311 692.844C72.8511 693.076 73.4271 693.192 74.0591 693.192C74.6831 693.192 75.2511 693.076 75.7631 692.844C76.2831 692.604 76.6951 692.252 76.9991 691.788C77.3111 691.316 77.4671 690.736 77.4671 690.048C77.4671 689.624 77.3911 689.244 77.2391 688.908C77.0951 688.572 76.8951 688.288 76.6391 688.056C76.3911 687.816 76.1111 687.636 75.7991 687.516C75.4951 687.388 75.1871 687.324 74.8751 687.324C74.5711 687.324 74.3151 687.356 74.1071 687.42C73.9071 687.484 73.6951 687.628 73.4711 687.852L73.8911 687.672L76.6031 684.636H74.0351ZM65.148 716.024L67.224 715.508V722H69.18V713.444L65.148 714.26V716.024ZM70.7975 715.496H74.6735L71.3975 722H73.5935L77.6495 713.6H70.7975V715.496ZM65.0015 745.024L67.0775 744.508V751H69.0335V742.444L65.0015 743.26V745.024ZM71.215 744.628C71.215 745.012 71.295 745.348 71.455 745.636C71.623 745.916 71.843 746.152 72.115 746.344C72.387 746.528 72.691 746.664 73.027 746.752C73.363 746.84 73.703 746.884 74.047 746.884C74.391 746.884 74.731 746.84 75.067 746.752C75.403 746.664 75.707 746.528 75.979 746.344C76.259 746.152 76.479 745.916 76.639 745.636C76.807 745.348 76.891 745.012 76.891 744.628C76.891 744.156 76.759 743.756 76.495 743.428C76.239 743.092 75.895 742.84 75.463 742.672C75.039 742.496 74.567 742.408 74.047 742.408C73.535 742.408 73.063 742.496 72.631 742.672C72.207 742.84 71.863 743.092 71.599 743.428C71.343 743.756 71.215 744.156 71.215 744.628ZM73.123 744.82C73.123 744.636 73.159 744.472 73.231 744.328C73.311 744.176 73.423 744.06 73.567 743.98C73.711 743.9 73.871 743.86 74.047 743.86C74.239 743.86 74.403 743.9 74.539 743.98C74.683 744.06 74.791 744.176 74.863 744.328C74.943 744.472 74.983 744.636 74.983 744.82C74.983 745.012 74.943 745.18 74.863 745.324C74.783 745.468 74.671 745.58 74.527 745.66C74.391 745.74 74.231 745.78 74.047 745.78C73.871 745.78 73.711 745.74 73.567 745.66C73.431 745.58 73.323 745.468 73.243 745.324C73.163 745.18 73.123 745.012 73.123 744.82ZM70.915 748.72C70.915 749.104 70.999 749.448 71.167 749.752C71.335 750.056 71.567 750.316 71.863 750.532C72.159 750.748 72.495 750.912 72.871 751.024C73.247 751.136 73.639 751.192 74.047 751.192C74.463 751.192 74.859 751.136 75.235 751.024C75.611 750.912 75.947 750.748 76.243 750.532C76.539 750.316 76.771 750.056 76.939 749.752C77.107 749.448 77.191 749.104 77.191 748.72C77.191 748.28 77.095 747.904 76.903 747.592C76.711 747.272 76.455 747.016 76.135 746.824C75.823 746.624 75.483 746.48 75.115 746.392C74.747 746.296 74.391 746.248 74.047 746.248C73.703 746.248 73.347 746.296 72.979 746.392C72.611 746.48 72.271 746.624 71.959 746.824C71.647 747.016 71.395 747.272 71.203 747.592C71.011 747.904 70.915 748.28 70.915 748.72ZM72.931 748.408C72.931 748.208 72.979 748.024 73.075 747.856C73.179 747.688 73.315 747.556 73.483 747.46C73.659 747.364 73.847 747.316 74.047 747.316C74.255 747.316 74.443 747.364 74.611 747.46C74.787 747.556 74.923 747.688 75.019 747.856C75.123 748.024 75.175 748.208 75.175 748.408C75.175 748.656 75.123 748.864 75.019 749.032C74.923 749.2 74.787 749.328 74.611 749.416C74.443 749.504 74.255 749.548 74.047 749.548C73.847 749.548 73.659 749.504 73.483 749.416C73.315 749.328 73.179 749.2 73.075 749.032C72.979 748.864 72.931 748.656 72.931 748.408ZM64.7496 774.024L66.8256 773.508V780H68.7816V771.444L64.7496 772.26V774.024ZM75.4631 774.552C75.4631 774.832 75.3991 775.08 75.2711 775.296C75.1511 775.512 74.9831 775.68 74.7671 775.8C74.5591 775.92 74.3231 775.98 74.0591 775.98C73.7871 775.98 73.5431 775.92 73.3271 775.8C73.1191 775.68 72.9511 775.512 72.8231 775.296C72.7031 775.08 72.6431 774.832 72.6431 774.552C72.6431 774.264 72.7031 774.016 72.8231 773.808C72.9511 773.592 73.1191 773.428 73.3271 773.316C73.5431 773.196 73.7871 773.136 74.0591 773.136C74.3231 773.136 74.5591 773.196 74.7671 773.316C74.9831 773.428 75.1511 773.592 75.2711 773.808C75.3991 774.016 75.4631 774.264 75.4631 774.552ZM74.0711 779.964L76.4951 776.88C76.7671 776.544 76.9951 776.184 77.1791 775.8C77.3711 775.416 77.4671 775 77.4671 774.552C77.4671 773.856 77.3111 773.276 76.9991 772.812C76.6951 772.348 76.2831 772 75.7631 771.768C75.2511 771.528 74.6831 771.408 74.0591 771.408C73.4271 771.408 72.8511 771.528 72.3311 771.768C71.8191 772 71.4071 772.348 71.0951 772.812C70.7911 773.276 70.6391 773.856 70.6391 774.552C70.6391 774.976 70.7151 775.356 70.8671 775.692C71.0191 776.028 71.2191 776.316 71.4671 776.556C71.7151 776.788 71.9911 776.968 72.2951 777.096C72.6071 777.216 72.9191 777.276 73.2311 777.276C73.5351 777.276 73.7871 777.244 73.9871 777.18C74.1951 777.108 74.4111 776.964 74.6351 776.748L74.2271 776.928L71.5031 779.964H74.0711ZM63.3298 809H70.4458V807.14H67.0858L69.0418 805.388C69.4018 805.076 69.6938 804.732 69.9178 804.356C70.1418 803.972 70.2538 803.552 70.2538 803.096C70.2538 802.776 70.1858 802.46 70.0498 802.148C69.9138 801.836 69.7098 801.552 69.4378 801.296C69.1738 801.032 68.8418 800.824 68.4418 800.672C68.0418 800.512 67.5818 800.432 67.0618 800.432C66.3418 800.432 65.7298 800.58 65.2258 800.876C64.7298 801.172 64.3578 801.568 64.1098 802.064C63.8618 802.56 63.7378 803.108 63.7378 803.708H65.7298C65.7298 803.404 65.7778 803.136 65.8738 802.904C65.9778 802.672 66.1258 802.492 66.3178 802.364C66.5178 802.236 66.7458 802.172 67.0018 802.172C67.1938 802.172 67.3618 802.204 67.5058 802.268C67.6498 802.324 67.7698 802.404 67.8658 802.508C67.9618 802.604 68.0338 802.716 68.0818 802.844C68.1298 802.972 68.1538 803.1 68.1538 803.228C68.1538 803.452 68.1098 803.664 68.0218 803.864C67.9418 804.056 67.8178 804.252 67.6498 804.452C67.4898 804.652 67.2978 804.876 67.0738 805.124L63.3298 809ZM73.4008 804.8C73.4008 804.408 73.4368 804.052 73.5088 803.732C73.5808 803.404 73.6848 803.128 73.8208 802.904C73.9568 802.672 74.1168 802.496 74.3008 802.376C74.4928 802.248 74.7048 802.184 74.9368 802.184C75.1688 802.184 75.3768 802.248 75.5608 802.376C75.7528 802.496 75.9168 802.672 76.0528 802.904C76.1888 803.128 76.2928 803.404 76.3648 803.732C76.4368 804.052 76.4728 804.408 76.4728 804.8C76.4728 805.192 76.4368 805.552 76.3648 805.88C76.2928 806.2 76.1888 806.476 76.0528 806.708C75.9168 806.932 75.7528 807.108 75.5608 807.236C75.3768 807.356 75.1688 807.416 74.9368 807.416C74.7048 807.416 74.4928 807.356 74.3008 807.236C74.1168 807.108 73.9568 806.932 73.8208 806.708C73.6848 806.476 73.5808 806.2 73.5088 805.88C73.4368 805.552 73.4008 805.192 73.4008 804.8ZM71.4448 804.8C71.4448 805.712 71.5888 806.492 71.8768 807.14C72.1728 807.788 72.5848 808.288 73.1128 808.64C73.6408 808.984 74.2488 809.156 74.9368 809.156C75.6568 809.156 76.2768 808.984 76.7968 808.64C77.3168 808.288 77.7168 807.788 77.9968 807.14C78.2848 806.492 78.4288 805.712 78.4288 804.8C78.4288 803.888 78.2848 803.108 77.9968 802.46C77.7168 801.812 77.3168 801.316 76.7968 800.972C76.2768 800.62 75.6568 800.444 74.9368 800.444C74.2488 800.444 73.6408 800.62 73.1128 800.972C72.5848 801.316 72.1728 801.812 71.8768 802.46C71.5888 803.108 71.4448 803.888 71.4448 804.8Z" fill="#898989"/>
<rect x="57" y="231" width="28" height="597" rx="5" stroke="#707070" stroke-width="2"/>
<rect x="71" y="128" width="296" height="27" rx="6" fill="#4D4D4D"/>
<rect x="103" y="242" width="296" height="19" rx="6" fill="#525252"/>
<rect x="103" y="273" width="415" height="19" rx="6" fill="#525252"/>
<rect x="103" y="304" width="168" height="19" rx="6" fill="#525252"/>
<rect x="103" y="332" width="524" height="19" rx="6" fill="#525252"/>
<rect x="103" y="391" width="467" height="19" rx="6" fill="#525252"/>
<rect x="103" y="419" width="640" height="19" rx="6" fill="#525252"/>
<rect x="103" y="363" width="245" height="19" rx="6" fill="#525252"/>
<rect x="716" y="876" width="228" height="52" rx="10" fill="#6CC274"/>
<rect x="92" y="876" width="228" height="52" rx="10" fill="#414141"/>
<rect x="404" y="876" width="228" height="52" rx="10" fill="#525252"/>
<rect x="1062" y="103" width="410" height="825" rx="15" fill="#313131"/>
<rect x="1089" y="147" width="208" height="13" rx="6" fill="#7DDD87"/>
<rect x="1089" y="147" width="208" height="13" rx="6" fill="#7DDD87"/>
<rect x="1089" y="147" width="208" height="13" rx="6" fill="#7DDD87"/>
<rect x="40" y="32" width="208" height="13" rx="6" fill="#7DDD87"/>
<rect x="40" y="32" width="208" height="13" rx="6" fill="#7DDD87"/>
<rect x="40" y="32" width="208" height="13" rx="6" fill="#7DDD87"/>
<rect x="40" y="57" width="299" height="13" rx="6" fill="#525252"/>
<rect x="1089" y="170" width="351" height="15" rx="6" fill="#525252"/>
<rect x="1283" y="45" width="189" height="15" rx="6" fill="#525252"/>
<rect x="1089" y="223" width="135" height="14" rx="6" fill="#7DDD87"/>
<rect x="1089" y="223" width="135" height="14" rx="6" fill="#7DDD87"/>
<rect x="1089" y="223" width="135" height="14" rx="6" fill="#7DDD87"/>
<rect x="1089" y="247" width="351" height="14" rx="6" fill="#525252"/>
<rect x="1091" y="416" width="201" height="14" rx="6" fill="#7DDD87"/>
<rect x="1091" y="416" width="201" height="14" rx="6" fill="#7DDD87"/>
<rect x="1091" y="416" width="201" height="14" rx="6" fill="#7DDD87"/>
<rect x="1091" y="440" width="351" height="14" rx="6" fill="#525252"/>
<rect x="1091" y="440" width="351" height="14" rx="6" fill="#525252"/>
<rect x="1091" y="462" width="116" height="14" rx="6" fill="#525252"/>
<rect x="1091" y="517" width="92" height="14" rx="6" fill="#7DDD87"/>
<rect x="1091" y="517" width="92" height="14" rx="6" fill="#7DDD87"/>
<rect x="1091" y="517" width="92" height="14" rx="6" fill="#7DDD87"/>
<rect x="1091" y="541" width="351" height="14" rx="6" fill="#525252"/>
<rect x="1091" y="562" width="351" height="14" rx="6" fill="#525252"/>
<rect x="1091" y="586" width="275" height="14" rx="6" fill="#525252"/>
<rect x="1089" y="322" width="351" height="14" rx="6" fill="#525252"/>
<rect x="1089" y="344" width="351" height="14" rx="6" fill="#525252"/>
<rect x="1089" y="365" width="226" height="14" rx="6" fill="#525252"/>
<rect x="1089" y="298" width="264" height="14" rx="6" fill="#7DDD87"/>
<rect x="1089" y="298" width="264" height="14" rx="6" fill="#7DDD87"/>
<rect x="1089" y="298" width="264" height="14" rx="6" fill="#7DDD87"/>
</svg>
