<svg width="380" height="380" viewBox="0 0 380 380" fill="none" xmlns="http://www.w3.org/2000/svg">
<path d="M84.6456 191.576C77.465 191.669 74.8285 182.149 80.6379 177.105L184.092 87.2667C185.575 85.9791 187.396 85.259 189.228 85.2353L317.103 83.5765C324.283 83.4834 326.92 93.0036 321.111 98.0483L217.656 187.886C216.173 189.174 214.353 189.894 212.52 189.918L84.6456 191.576Z" fill="#7DDD87"/>
<path d="M62.4715 296.423C55.2909 296.517 52.6544 286.996 58.4637 281.952L161.918 192.114C163.401 190.826 165.221 190.106 167.054 190.082L294.929 188.424C302.109 188.331 304.746 197.851 298.936 202.895L195.482 292.733C193.999 294.021 192.179 294.741 190.346 294.765L62.4715 296.423Z" fill="#6CC274"/>
</svg>
